<svg viewBox="0 0 304 142" xmlns="http://www.w3.org/2000/svg">
  <path 
    d="M4 138L66.5003 4H98.5517L161.252 138H127.198L75.9154 19.6971H88.736L37.2534 138H4ZM35.2501 109.286L43.864 85.74H115.98L124.794 109.286H35.2501Z" 
    fill="currentColor"
  />
  <path 
    d="M175.801 138V4H236.498C249.052 4 259.869 5.9781 268.95 9.93429C278.031 13.7629 285.043 19.3143 289.984 26.5886C294.925 33.8629 297.396 42.541 297.396 52.6229C297.396 62.5771 294.925 71.1914 289.984 78.4657C285.043 85.6124 278.031 91.1 268.95 94.9286C259.869 98.7571 249.052 100.671 236.498 100.671H193.83L208.253 87.08V138H175.801ZM264.944 138L229.887 89.3771H264.543L300 138H264.944ZM208.253 90.5257L193.83 75.9771H234.695C244.711 75.9771 252.19 73.9352 257.131 69.8514C262.072 65.64 264.543 59.8971 264.543 52.6229C264.543 45.221 262.072 39.4781 257.131 35.3943C252.19 31.3105 244.711 29.2686 234.695 29.2686H193.83L208.253 14.5286V90.5257Z" 
    fill="currentColor"
  />
</svg>

